<?xml version="1.0" encoding="UTF-8"?> <svg xmlns="http://www.w3.org/2000/svg" viewBox="0 0 100 100"><defs><style> .a { fill: #f0f2ff; } .b { fill: none; } .b, .c, .d { stroke: #23B39F; stroke-linecap: round; stroke-linejoin: round; } .c { fill: #fff; } .d { fill: #EDF7FC; } </style></defs><title>avatar-network--user-network-SOCIAL-CONNECT-COMMUNICATION-CIRCLE-GRAPH-WEB</title><g><g><g><line class="b" x1="50.05" y1="84.635" x2="67.354" y2="78.09"></line><line class="b" x1="11.661" y1="38.722" x2="26.314" y2="76.609"></line><line class="b" x1="49.365" y1="12.227" x2="30.597" y2="22.588"></line><line class="b" x1="11.661" y1="38.722" x2="30.597" y2="22.588"></line><line class="b" x1="65.077" y1="18.327" x2="49.365" y2="12.227"></line><line class="b" x1="73.596" y1="27.573" x2="65.077" y2="18.327"></line><line class="b" x1="85.442" y1="31.64" x2="73.596" y2="27.573"></line><line class="b" x1="80.308" y1="48.051" x2="67.354" y2="78.09"></line><line class="b" x1="85.986" y1="69.693" x2="67.354" y2="78.09"></line><line class="b" x1="30.597" y1="22.588" x2="65.077" y2="18.327"></line><line class="b" x1="30.398" y1="60.838" x2="26.314" y2="76.609"></line><line class="b" x1="11.661" y1="38.722" x2="30.398" y2="60.838"></line><line class="b" x1="50.05" y1="84.635" x2="30.398" y2="60.838"></line><line class="b" x1="30.803" y1="40.341" x2="50.05" y2="36.564"></line><line class="b" x1="65.077" y1="18.327" x2="53.856" y2="55.905"></line><line class="b" x1="80.308" y1="48.051" x2="73.596" y2="27.573"></line><polyline class="b" points="53.856 55.905 50.05 36.564 65.077 18.327"></polyline><line class="b" x1="67.354" y1="78.09" x2="53.856" y2="55.905"></line><polyline class="b" points="53.831 55.743 50.05 84.635 26.314 76.609"></polyline><circle class="c" cx="50.05" cy="36.564" r="2.838"></circle><line class="c" x1="53.856" y1="55.905" x2="73.596" y2="27.573"></line><circle class="c" cx="73.596" cy="27.573" r="2.838"></circle><circle class="c" cx="85.442" cy="31.64" r="2.838"></circle><circle class="c" cx="85.986" cy="69.693" r="2.838"></circle><circle class="c" cx="65.077" cy="18.327" r="2.838"></circle><circle class="c" cx="30.586" cy="22.588" r="2.838"></circle><circle class="c" cx="11.661" cy="38.84" r="2.838"></circle><circle class="c" cx="49.365" cy="12.227" r="2.838"></circle><circle class="c" cx="50.05" cy="84.509" r="2.838"></circle><circle class="c" cx="26.314" cy="76.609" r="2.838"></circle><circle class="c" cx="30.398" cy="60.838" r="2.838"></circle><g><circle class="c" cx="30.803" cy="38.453" r="7.191"></circle><path class="d" d="M35.611,43.8A7.192,7.192,0,0,1,26,43.8,5.206,5.206,0,0,1,35.6,43.8"></path></g><g><circle class="c" cx="53.857" cy="55.905" r="10.567"></circle><path class="c" d="M50.457,55.66a3.4,3.4,0,0,0,6.8,0v-1.7a3.4,3.4,0,0,0-6.8,0Z"></path><path class="d" d="M60.92,63.764a10.567,10.567,0,0,1-14.124,0,7.649,7.649,0,0,1,14.116-.012"></path><path class="c" d="M50.485,53.521a3.4,3.4,0,0,1,6.2-1.453A6.193,6.193,0,0,1,50.485,53.521Z"></path></g><g><circle class="c" cx="80.308" cy="47.533" r="7.191"></circle><path class="c" d="M77.994,47.366a2.314,2.314,0,1,0,4.628,0V46.209a2.314,2.314,0,1,0-4.628,0Z"></path><path class="d" d="M85.115,52.881a7.191,7.191,0,0,1-9.612,0,5.206,5.206,0,0,1,9.607-.008"></path><path class="c" d="M78.013,45.91a2.314,2.314,0,0,1,4.217-.989A4.217,4.217,0,0,1,78.013,45.91Z"></path></g><g><circle class="c" cx="67.354" cy="78.065" r="7.191"></circle><path class="c" d="M65.04,77.9a2.314,2.314,0,0,0,4.628,0V76.742a2.314,2.314,0,0,0-4.628,0Z"></path><path class="d" d="M72.161,83.414a7.194,7.194,0,0,1-9.612,0,5.206,5.206,0,0,1,9.607-.009"></path><path class="c" d="M65.059,76.443a2.314,2.314,0,0,1,4.217-.989A4.217,4.217,0,0,1,65.059,76.443Z"></path></g><line class="b" x1="52.703" y1="37.571" x2="73.426" y2="45.439"></line><line class="b" x1="85.266" y1="66.947" x2="82.006" y2="54.522"></line><line class="b" x1="43.495" y1="57.99" x2="33.172" y2="60.235"></line><line class="b" x1="84.595" y1="34.349" x2="82.603" y2="40.715"></line><line class="b" x1="35.745" y1="43.677" x2="45.098" y2="49.992"></line><line class="b" x1="30.698" y1="31.262" x2="30.63" y2="25.425"></line><line class="b" x1="35.592" y1="33.088" x2="47.801" y2="14.595"></line><line class="b" x1="23.727" y1="39.743" x2="14.496" y2="38.961"></line><line class="b" x1="30.699" y1="45.643" x2="30.454" y2="58.001"></line><line class="b" x1="83.378" y1="68.573" x2="63.57" y2="60.073"></line></g><path class="c" d="M28.49,38.286a2.314,2.314,0,1,0,4.627,0V37.129a2.314,2.314,0,1,0-4.627,0Z"></path><path class="c" d="M28.509,36.83a2.313,2.313,0,0,1,4.216-.989A4.213,4.213,0,0,1,28.509,36.83Z"></path></g></g></svg> 